<svg xmlns="http://www.w3.org/2000/svg" xmlns:xlink="http://www.w3.org/1999/xlink" width="500" zoomAndPan="magnify" viewBox="0 0 375 374.999991" height="500" preserveAspectRatio="xMidYMid meet" version="1.0"><defs><filter x="0%" y="0%" width="100%" height="100%" id="65fdca6120"><feColorMatrix values="0 0 0 0 1 0 0 0 0 1 0 0 0 0 1 0 0 0 1 0" color-interpolation-filters="sRGB"/></filter><mask id="1002409875"><g filter="url(#65fdca6120)"><rect x="-37.5" width="450" fill="#000000" y="-37.499999" height="449.999989" fill-opacity="0.62"/></g></mask><clipPath id="9a5d63d519"><path d="M 64 0 L 237 0 L 237 375 L 64 375 Z M 64 0 " clip-rule="nonzero"/></clipPath><clipPath id="c3acf2d8a5"><path d="M 211 0 L 311 0 L 311 375 L 211 375 Z M 211 0 " clip-rule="nonzero"/></clipPath><clipPath id="f5af74a21e"><path d="M 284 0 L 375 0 L 375 375 L 284 375 Z M 284 0 " clip-rule="nonzero"/></clipPath><clipPath id="8d5af632db"><path d="M 0 0 L 91 0 L 91 375 L 0 375 Z M 0 0 " clip-rule="nonzero"/></clipPath><clipPath id="ffa1e480c4"><rect x="0" width="375" y="0" height="375"/></clipPath></defs><g mask="url(#1002409875)"><g transform="matrix(1, 0, 0, 1, 0, 0)"><g clip-path="url(#ffa1e480c4)"><g clip-path="url(#9a5d63d519)"><path fill="#ff67e7" d="M 138.765625 -104.042969 L 139 -103.640625 L 139.464844 -103.640625 L 139.230469 -103.238281 L 163.417969 -61.351562 L 211.78125 -61.351562 L 212.015625 -61.753906 L 212.246094 -61.351562 L 212.710938 -61.351562 L 212.480469 -60.949219 L 236.898438 -18.660156 L 212.480469 23.628906 L 236.898438 65.917969 L 212.480469 108.207031 L 236.898438 150.496094 L 212.480469 192.785156 L 236.898438 235.074219 L 212.683594 277.007812 L 212.480469 277.363281 L 212.683594 277.71875 L 236.898438 319.652344 L 212.683594 361.589844 L 212.480469 361.941406 L 212.667969 362.269531 L 236.898438 404.230469 L 212.683594 446.164062 L 212.480469 446.519531 L 212.683594 446.875 L 236.898438 488.808594 L 212.480469 531.101562 L 212.710938 531.503906 L 212.246094 531.503906 L 212.015625 531.90625 L 211.78125 531.503906 L 163.417969 531.503906 L 139.230469 573.390625 L 139.464844 573.792969 L 139 573.792969 L 138.765625 574.195312 L 138.535156 573.792969 L 89.707031 573.792969 L 65.289062 531.503906 L 64.824219 531.503906 L 65.054688 531.101562 L 64.824219 530.695312 L 65.289062 530.695312 L 89.476562 488.8125 L 65.289062 446.925781 L 64.824219 446.925781 L 65.054688 446.519531 L 64.824219 446.117188 L 65.289062 446.117188 L 89.476562 404.234375 L 65.289062 362.347656 L 64.824219 362.347656 L 65.054688 361.941406 L 64.824219 361.539062 L 65.289062 361.539062 L 89.476562 319.65625 L 65.289062 277.765625 L 64.824219 277.765625 L 65.054688 277.363281 L 64.824219 276.960938 L 65.289062 276.960938 L 89.476562 235.074219 L 65.289062 193.1875 L 64.824219 193.1875 L 65.054688 192.785156 L 64.824219 192.382812 L 65.289062 192.382812 L 89.476562 150.496094 L 65.289062 108.609375 L 64.824219 108.609375 L 65.054688 108.207031 L 64.824219 107.804688 L 65.289062 107.804688 L 89.476562 65.917969 L 65.289062 24.03125 L 64.824219 24.03125 L 65.054688 23.628906 L 64.824219 23.226562 L 65.289062 23.226562 L 89.476562 -18.660156 L 65.289062 -60.546875 L 64.824219 -60.546875 L 65.054688 -60.949219 L 64.824219 -61.351562 L 65.289062 -61.351562 L 89.59375 -103.4375 L 89.707031 -103.640625 L 138.535156 -103.640625 Z M 163.421875 277.765625 L 139.464844 319.25 L 187.367188 319.25 L 211.316406 277.765625 Z M 163.421875 362.347656 L 139.464844 403.828125 L 187.367188 403.828125 L 211.316406 362.347656 Z M 163.421875 446.925781 L 139.464844 488.40625 L 187.367188 488.40625 L 211.316406 446.925781 Z M 163.421875 193.1875 L 139.464844 234.671875 L 187.367188 234.671875 L 211.316406 193.1875 Z M 163.421875 108.609375 L 139.464844 150.09375 L 187.367188 150.09375 L 211.316406 108.609375 Z M 163.421875 24.03125 L 139.464844 65.515625 L 187.367188 65.515625 L 211.316406 24.03125 Z M 187.367188 -18.257812 L 139.464844 -18.257812 L 163.421875 23.226562 L 211.316406 23.226562 L 208.847656 18.945312 Z M 187.367188 66.320312 L 139.464844 66.320312 L 163.421875 107.804688 L 211.316406 107.804688 L 208.847656 103.523438 Z M 187.367188 150.898438 L 139.464844 150.898438 L 163.421875 192.382812 L 211.316406 192.382812 L 208.847656 188.101562 Z M 187.367188 235.476562 L 139.464844 235.476562 L 163.421875 276.960938 L 211.316406 276.960938 L 200.5 258.226562 Z M 187.367188 320.058594 L 139.464844 320.058594 L 163.421875 361.539062 L 211.316406 361.539062 L 200.5 342.804688 Z M 187.367188 404.632812 L 139.464844 404.632812 L 163.421875 446.117188 L 211.316406 446.117188 L 200.5 427.382812 Z M 162.722656 446.519531 L 138.765625 405.039062 L 114.820312 446.523438 L 138.765625 488.003906 Z M 162.722656 361.941406 L 138.765625 320.460938 L 114.820312 361.945312 L 138.765625 403.425781 Z M 162.722656 277.363281 L 138.765625 235.882812 L 114.820312 277.363281 L 138.765625 318.847656 Z M 162.722656 192.785156 L 138.765625 151.300781 L 114.820312 192.785156 L 138.765625 234.269531 Z M 162.722656 108.207031 L 138.765625 66.722656 L 114.820312 108.207031 L 138.765625 149.691406 Z M 162.722656 23.628906 L 138.765625 -17.855469 L 114.820312 23.628906 L 138.765625 65.113281 Z M 163.421875 -60.546875 L 139.464844 -19.0625 L 187.367188 -19.0625 L 211.316406 -60.546875 Z M 114.820312 -60.949219 L 138.765625 -19.464844 L 162.722656 -60.949219 L 138.765625 -102.433594 Z M 212.015625 -60.144531 L 188.066406 -18.660156 L 212.015625 22.824219 L 235.96875 -18.660156 Z M 212.015625 24.433594 L 188.066406 65.917969 L 212.015625 107.402344 L 235.96875 65.917969 Z M 212.015625 109.011719 L 188.066406 150.496094 L 212.015625 191.980469 L 235.96875 150.496094 Z M 212.015625 193.589844 L 188.066406 235.074219 L 212.015625 276.558594 L 235.96875 235.074219 Z M 212.015625 278.171875 L 188.066406 319.65625 L 212.015625 361.136719 L 235.96875 319.652344 Z M 212.015625 362.75 L 188.066406 404.230469 L 212.015625 445.714844 L 235.96875 404.230469 Z M 235.96875 488.8125 L 212.015625 447.328125 L 188.066406 488.8125 L 212.015625 530.292969 Z M 187.367188 489.214844 L 139.464844 489.214844 L 163.421875 530.695312 L 211.316406 530.695312 L 200.5 511.960938 Z M 162.722656 531.101562 L 138.765625 489.617188 L 114.820312 531.101562 L 138.765625 572.582031 Z M 90.171875 572.988281 L 138.070312 572.988281 L 127.253906 554.25 L 114.121094 531.503906 L 66.21875 531.503906 Z M 114.121094 530.695312 L 138.070312 489.214844 L 90.171875 489.214844 L 66.21875 530.695312 Z M 90.171875 488.40625 L 138.070312 488.40625 L 127.253906 469.671875 L 114.121094 446.925781 L 66.21875 446.925781 Z M 114.121094 446.117188 L 138.070312 404.632812 L 90.171875 404.632812 L 66.21875 446.117188 Z M 90.171875 403.828125 L 138.070312 403.828125 L 127.394531 385.339844 L 114.121094 362.347656 L 66.21875 362.347656 Z M 114.121094 361.539062 L 138.070312 320.058594 L 90.171875 320.058594 L 66.21875 361.539062 Z M 90.171875 319.25 L 138.070312 319.25 L 127.253906 300.515625 L 114.121094 277.765625 L 66.21875 277.765625 Z M 114.121094 276.960938 L 138.070312 235.476562 L 90.171875 235.476562 L 66.21875 276.960938 Z M 90.171875 234.671875 L 138.070312 234.671875 L 135.597656 230.390625 L 114.121094 193.1875 L 66.21875 193.1875 Z M 114.121094 192.382812 L 138.070312 150.898438 L 90.171875 150.898438 L 66.21875 192.382812 Z M 90.171875 150.09375 L 138.070312 150.09375 L 135.597656 145.8125 L 114.121094 108.609375 L 66.21875 108.609375 Z M 114.121094 107.804688 L 138.070312 66.320312 L 90.171875 66.320312 L 66.21875 107.804688 Z M 90.171875 65.515625 L 138.070312 65.515625 L 135.597656 61.234375 L 114.121094 24.03125 L 66.21875 24.03125 Z M 114.121094 23.226562 L 138.070312 -18.257812 L 90.171875 -18.257812 L 66.21875 23.226562 Z M 90.171875 -19.0625 L 138.070312 -19.0625 L 135.597656 -23.34375 L 114.121094 -60.546875 L 66.21875 -60.546875 Z M 90.171875 -102.835938 L 66.21875 -61.351562 L 114.121094 -61.351562 L 138.070312 -102.835938 Z M 90.171875 -102.835938 " fill-opacity="1" fill-rule="nonzero"/></g><g clip-path="url(#c3acf2d8a5)"><path fill="#dfadff" d="M 285.257812 -104.042969 L 285.492188 -103.640625 L 285.957031 -103.640625 L 285.722656 -103.238281 L 310.144531 -60.949219 L 285.722656 -18.660156 L 310.144531 23.628906 L 285.722656 65.917969 L 310.144531 108.207031 L 285.722656 150.496094 L 310.144531 192.785156 L 285.722656 235.074219 L 285.929688 235.429688 L 310.144531 277.363281 L 285.929688 319.296875 L 285.722656 319.652344 L 285.929688 320.007812 L 310.144531 361.941406 L 285.914062 403.902344 L 285.722656 404.230469 L 285.929688 404.585938 L 310.144531 446.519531 L 285.929688 488.453125 L 285.722656 488.8125 L 285.929688 489.164062 L 310.144531 531.101562 L 285.722656 573.390625 L 285.957031 573.792969 L 285.492188 573.792969 L 285.257812 574.195312 L 285.027344 573.792969 L 236.203125 573.792969 L 211.78125 531.503906 L 211.316406 531.503906 L 211.550781 531.101562 L 211.316406 530.695312 L 211.78125 530.695312 L 235.96875 488.8125 L 211.78125 446.925781 L 211.316406 446.925781 L 211.550781 446.519531 L 211.316406 446.117188 L 211.78125 446.117188 L 235.96875 404.234375 L 211.78125 362.347656 L 211.316406 362.347656 L 211.550781 361.941406 L 211.316406 361.539062 L 211.78125 361.539062 L 235.96875 319.65625 L 211.78125 277.765625 L 211.316406 277.765625 L 211.550781 277.363281 L 211.316406 276.960938 L 211.78125 276.960938 L 235.96875 235.074219 L 211.78125 193.1875 L 211.316406 193.1875 L 211.550781 192.785156 L 211.316406 192.382812 L 211.78125 192.382812 L 235.96875 150.496094 L 211.78125 108.609375 L 211.316406 108.609375 L 211.550781 108.207031 L 211.316406 107.804688 L 211.78125 107.804688 L 235.96875 65.917969 L 211.78125 24.03125 L 211.316406 24.03125 L 211.550781 23.628906 L 211.316406 23.226562 L 211.78125 23.226562 L 235.96875 -18.660156 L 211.78125 -60.546875 L 211.316406 -60.546875 L 211.550781 -60.949219 L 211.316406 -61.351562 L 211.78125 -61.351562 L 236.085938 -103.4375 L 236.203125 -103.640625 L 285.027344 -103.640625 Z M 285.257812 -102.433594 L 261.3125 -60.949219 L 285.257812 -19.464844 L 309.214844 -60.949219 Z M 285.257812 -17.855469 L 261.3125 23.628906 L 285.257812 65.113281 L 309.214844 23.628906 Z M 285.257812 66.722656 L 261.3125 108.207031 L 285.257812 149.691406 L 309.214844 108.207031 Z M 285.257812 151.300781 L 261.3125 192.785156 L 285.257812 234.269531 L 309.214844 192.785156 Z M 285.257812 235.882812 L 261.3125 277.363281 L 285.257812 318.847656 L 309.214844 277.363281 Z M 285.257812 320.460938 L 261.3125 361.945312 L 285.257812 403.425781 L 309.214844 361.941406 Z M 285.257812 405.039062 L 261.3125 446.523438 L 285.257812 488.003906 L 309.214844 446.519531 Z M 309.214844 531.101562 L 285.257812 489.617188 L 261.3125 531.101562 L 285.257812 572.582031 Z M 236.667969 572.988281 L 284.5625 572.988281 L 273.746094 554.25 L 260.613281 531.503906 L 212.710938 531.503906 Z M 260.613281 530.695312 L 284.5625 489.214844 L 236.667969 489.214844 L 212.710938 530.695312 Z M 236.667969 488.40625 L 284.5625 488.40625 L 273.746094 469.671875 L 260.613281 446.925781 L 212.710938 446.925781 Z M 260.613281 446.117188 L 284.5625 404.632812 L 236.667969 404.632812 L 212.710938 446.117188 Z M 236.667969 403.828125 L 284.5625 403.828125 L 273.886719 385.339844 L 260.613281 362.347656 L 212.710938 362.347656 Z M 260.613281 361.539062 L 284.5625 320.058594 L 236.667969 320.058594 L 212.710938 361.539062 Z M 236.667969 319.25 L 284.5625 319.25 L 273.746094 300.515625 L 260.613281 277.765625 L 212.710938 277.765625 Z M 260.613281 276.960938 L 284.5625 235.476562 L 236.667969 235.476562 L 212.710938 276.960938 Z M 236.667969 234.671875 L 284.5625 234.671875 L 282.089844 230.390625 L 260.613281 193.1875 L 212.710938 193.1875 Z M 260.613281 192.382812 L 284.5625 150.898438 L 236.667969 150.898438 L 212.710938 192.382812 Z M 236.667969 150.09375 L 284.5625 150.09375 L 282.089844 145.8125 L 260.613281 108.609375 L 212.710938 108.609375 Z M 260.613281 107.804688 L 284.5625 66.320312 L 236.667969 66.320312 L 212.710938 107.804688 Z M 236.667969 65.515625 L 284.5625 65.515625 L 282.089844 61.234375 L 260.613281 24.03125 L 212.710938 24.03125 Z M 260.613281 23.226562 L 284.5625 -18.257812 L 236.667969 -18.257812 L 212.710938 23.226562 Z M 236.667969 -19.0625 L 284.5625 -19.0625 L 282.089844 -23.34375 L 260.613281 -60.546875 L 212.710938 -60.546875 Z M 236.667969 -102.835938 L 212.710938 -61.351562 L 260.613281 -61.351562 L 284.5625 -102.835938 Z M 236.667969 -102.835938 " fill-opacity="1" fill-rule="nonzero"/></g><g clip-path="url(#f5af74a21e)"><path fill="#9729b8" d="M 358.277344 -61.351562 L 358.507812 -61.753906 L 358.742188 -61.351562 L 359.207031 -61.351562 L 358.972656 -60.949219 L 383.394531 -18.660156 L 358.972656 23.628906 L 383.394531 65.917969 L 358.972656 108.207031 L 383.394531 150.496094 L 358.972656 192.785156 L 383.394531 235.074219 L 359.175781 277.011719 L 358.972656 277.363281 L 359.175781 277.714844 L 383.394531 319.652344 L 359.175781 361.59375 L 358.972656 361.941406 L 359.15625 362.265625 L 383.394531 404.230469 L 359.175781 446.167969 L 358.972656 446.519531 L 359.175781 446.871094 L 383.394531 488.8125 L 358.972656 531.101562 L 359.207031 531.503906 L 358.742188 531.503906 L 358.507812 531.90625 L 358.277344 531.503906 L 309.449219 531.503906 L 285.03125 489.214844 L 284.566406 489.214844 L 284.796875 488.808594 L 284.566406 488.40625 L 285.03125 488.40625 L 309.21875 446.519531 L 285.03125 404.632812 L 284.566406 404.632812 L 284.796875 404.230469 L 284.566406 403.828125 L 285.03125 403.828125 L 309.21875 361.941406 L 285.03125 320.058594 L 284.566406 320.058594 L 284.796875 319.652344 L 284.566406 319.25 L 285.03125 319.25 L 309.21875 277.363281 L 285.03125 235.476562 L 284.566406 235.476562 L 284.796875 235.074219 L 284.566406 234.671875 L 285.03125 234.671875 L 309.21875 192.785156 L 285.03125 150.898438 L 284.566406 150.898438 L 284.796875 150.496094 L 284.566406 150.09375 L 285.03125 150.09375 L 309.21875 108.207031 L 285.03125 66.320312 L 284.566406 66.320312 L 284.796875 65.917969 L 284.566406 65.515625 L 285.03125 65.515625 L 309.21875 23.628906 L 285.03125 -18.257812 L 284.566406 -18.257812 L 284.796875 -18.660156 L 284.566406 -19.0625 L 285.03125 -19.0625 L 309.449219 -61.351562 Z M 358.507812 -60.144531 L 355.363281 -54.695312 L 334.558594 -18.660156 L 355.363281 17.375 L 358.507812 22.824219 L 382.460938 -18.660156 Z M 358.507812 24.433594 L 355.363281 29.882812 L 334.558594 65.917969 L 355.363281 101.953125 L 358.507812 107.402344 L 382.460938 65.917969 Z M 358.507812 109.011719 L 355.363281 114.460938 L 334.558594 150.496094 L 355.363281 186.535156 L 358.507812 191.980469 L 382.460938 150.496094 Z M 358.507812 193.589844 L 352.578125 203.859375 L 334.558594 235.074219 L 342.335938 248.546875 L 358.507812 276.558594 L 382.460938 235.074219 Z M 358.507812 278.171875 L 339.195312 311.628906 L 334.558594 319.652344 L 348.789062 344.300781 L 358.507812 361.136719 L 382.460938 319.652344 Z M 358.507812 362.75 L 339.226562 396.152344 L 334.558594 404.230469 L 348.789062 428.878906 L 358.507812 445.714844 L 382.460938 404.230469 Z M 382.460938 488.8125 L 358.507812 447.328125 L 339.195312 480.785156 L 334.558594 488.8125 L 348.789062 513.457031 L 358.507812 530.292969 Z M 309.914062 530.695312 L 357.8125 530.695312 L 348.089844 513.859375 L 333.863281 489.214844 L 285.960938 489.214844 Z M 333.863281 488.40625 L 348.089844 463.761719 L 357.8125 446.925781 L 309.914062 446.925781 L 285.960938 488.40625 Z M 309.914062 446.117188 L 357.8125 446.117188 L 348.089844 429.28125 L 333.863281 404.632812 L 285.960938 404.632812 Z M 333.863281 403.828125 L 348.214844 378.96875 L 357.8125 362.347656 L 309.914062 362.347656 L 285.960938 403.828125 Z M 309.914062 361.539062 L 357.8125 361.539062 L 348.089844 344.703125 L 333.863281 320.058594 L 285.960938 320.058594 Z M 333.863281 319.25 L 348.089844 294.605469 L 357.8125 277.765625 L 309.914062 277.765625 L 285.960938 319.25 Z M 309.914062 276.960938 L 357.8125 276.960938 L 348.089844 260.125 L 333.863281 235.476562 L 285.960938 235.476562 Z M 333.863281 234.671875 L 356.808594 194.925781 L 357.8125 193.1875 L 309.914062 193.1875 L 285.960938 234.671875 Z M 309.914062 192.382812 L 357.8125 192.382812 L 356.808594 190.644531 L 333.863281 150.898438 L 285.960938 150.898438 Z M 333.863281 150.09375 L 356.808594 110.347656 L 357.8125 108.609375 L 309.914062 108.609375 L 285.960938 150.09375 Z M 309.914062 107.804688 L 357.8125 107.804688 L 356.808594 106.066406 L 333.863281 66.320312 L 285.960938 66.320312 Z M 333.863281 65.515625 L 356.808594 25.769531 L 357.8125 24.03125 L 309.914062 24.03125 L 285.960938 65.515625 Z M 309.914062 23.226562 L 357.8125 23.226562 L 356.808594 21.488281 L 333.863281 -18.257812 L 285.960938 -18.257812 Z M 309.914062 -60.546875 L 285.960938 -19.0625 L 333.863281 -19.0625 L 356.808594 -58.808594 L 357.8125 -60.546875 Z M 309.914062 -60.546875 " fill-opacity="1" fill-rule="nonzero"/></g><g clip-path="url(#8d5af632db)"><path fill="#009cff" d="M 65.515625 -61.753906 L 65.75 -61.351562 L 66.214844 -61.351562 L 65.980469 -60.949219 L 90.402344 -18.660156 L 65.980469 23.628906 L 90.402344 65.917969 L 65.980469 108.207031 L 90.402344 150.496094 L 65.980469 192.785156 L 90.402344 235.074219 L 66.1875 277.007812 L 65.980469 277.363281 L 66.1875 277.71875 L 90.402344 319.652344 L 66.1875 361.589844 L 65.980469 361.941406 L 66.171875 362.269531 L 90.402344 404.230469 L 66.1875 446.164062 L 65.980469 446.519531 L 66.1875 446.875 L 90.402344 488.808594 L 65.980469 531.101562 L 66.214844 531.503906 L 65.75 531.503906 L 65.515625 531.90625 L 65.285156 531.503906 L 16.460938 531.503906 L -7.960938 489.214844 L -8.425781 489.214844 L -8.191406 488.808594 L -8.425781 488.40625 L -7.960938 488.40625 L 16.226562 446.523438 L -7.960938 404.632812 L -8.425781 404.632812 L -8.191406 404.230469 L -8.425781 403.828125 L -7.960938 403.828125 L 16.226562 361.945312 L -7.960938 320.058594 L -8.425781 320.058594 L -8.191406 319.652344 L -8.425781 319.25 L -7.960938 319.25 L 16.226562 277.367188 L -7.960938 235.476562 L -8.425781 235.476562 L -8.191406 235.074219 L -8.425781 234.671875 L -7.960938 234.671875 L 16.226562 192.785156 L -7.960938 150.898438 L -8.425781 150.898438 L -8.191406 150.496094 L -8.425781 150.09375 L -7.960938 150.09375 L 16.226562 108.207031 L -7.960938 66.320312 L -8.425781 66.320312 L -8.191406 65.917969 L -8.425781 65.515625 L -7.960938 65.515625 L 16.226562 23.628906 L -7.960938 -18.257812 L -8.425781 -18.257812 L -8.191406 -18.660156 L -8.425781 -19.0625 L -7.960938 -19.0625 L 16.34375 -61.148438 L 16.460938 -61.351562 L 65.285156 -61.351562 Z M 65.515625 -60.144531 L 41.570312 -18.660156 L 65.515625 22.824219 L 89.472656 -18.660156 Z M 65.515625 24.433594 L 41.570312 65.917969 L 65.515625 107.402344 L 89.472656 65.917969 Z M 65.515625 109.011719 L 41.570312 150.496094 L 65.515625 191.980469 L 89.472656 150.496094 Z M 65.515625 193.589844 L 41.570312 235.074219 L 65.515625 276.558594 L 89.472656 235.074219 Z M 65.515625 278.171875 L 41.570312 319.65625 L 65.515625 361.136719 L 89.472656 319.652344 Z M 65.515625 362.75 L 41.570312 404.230469 L 65.515625 445.714844 L 89.472656 404.230469 Z M 89.472656 488.8125 L 65.515625 447.328125 L 41.570312 488.8125 L 65.515625 530.292969 Z M 16.925781 530.695312 L 64.820312 530.695312 L 54.003906 511.960938 L 40.871094 489.214844 L -7.03125 489.214844 Z M 40.871094 488.40625 L 64.820312 446.925781 L 16.925781 446.925781 L -7.03125 488.40625 Z M 16.925781 446.117188 L 64.820312 446.117188 L 54.003906 427.382812 L 40.871094 404.632812 L -7.03125 404.632812 Z M 40.871094 403.828125 L 64.820312 362.347656 L 16.925781 362.347656 L -7.03125 403.828125 Z M 16.925781 361.539062 L 64.820312 361.539062 L 54.003906 342.804688 L 40.871094 320.058594 L -7.03125 320.058594 Z M 40.871094 319.25 L 64.820312 277.765625 L 16.925781 277.765625 L -7.03125 319.25 Z M 16.925781 276.960938 L 64.820312 276.960938 L 54.003906 258.226562 L 40.871094 235.476562 L -7.03125 235.476562 Z M 40.871094 234.671875 L 64.820312 193.1875 L 16.925781 193.1875 L -7.03125 234.671875 Z M 16.925781 192.382812 L 64.820312 192.382812 L 62.347656 188.101562 L 40.871094 150.898438 L -7.03125 150.898438 Z M 40.871094 150.09375 L 64.820312 108.609375 L 16.925781 108.609375 L -7.03125 150.09375 Z M 16.925781 107.804688 L 64.820312 107.804688 L 62.347656 103.523438 L 40.871094 66.320312 L -7.03125 66.320312 Z M 40.871094 65.515625 L 64.820312 24.03125 L 16.925781 24.03125 L -7.03125 65.515625 Z M 16.925781 23.226562 L 64.820312 23.226562 L 62.347656 18.945312 L 40.871094 -18.257812 L -7.03125 -18.257812 Z M 16.925781 -60.546875 L -7.03125 -19.0625 L 40.871094 -19.0625 L 64.820312 -60.546875 Z M 16.925781 -60.546875 " fill-opacity="1" fill-rule="nonzero"/></g></g></g></g></svg>